<svg width="125" height="125" viewBox="0 0 125 125" fill="none" xmlns="http://www.w3.org/2000/svg">
<path d="M6.26261 160.191C5.96451 152.173 6.28421 144.277 7.1937 136.535C8.45771 125.772 10.8435 115.318 14.2384 105.322C17.6845 95.1198 22.1984 85.3746 27.641 76.2671C33.1376 67.0403 39.5634 58.4505 46.8056 50.6187C54.0479 42.7869 62.1067 35.713 70.8405 29.519C79.4892 23.3871 88.8409 18.1043 98.7282 13.8828L98.7573 13.8817C108.471 9.69587 118.659 6.48433 129.297 4.39554C137.152 2.81871 145.234 1.87586 153.486 1.5691" stroke="#C0D4FF" stroke-width="3" stroke-miterlimit="10"/>
<path d="M102.383 13.1509L127.379 77.7978L127.395 77.7978L148.869 133.352" stroke="#C0D4FF" stroke-width="3" stroke-miterlimit="10"/>
<path d="M74.1669 27.626L112.07 85.6561L143.86 134.344" stroke="#C0D4FF" stroke-width="3" stroke-miterlimit="10"/>
<path d="M49.5812 47.6437L98.7252 96.5287L139.605 137.204" stroke="#C0D4FF" stroke-width="3" stroke-miterlimit="10"/>
<path d="M29.6931 72.3398L87.9099 109.945L136.764 141.493" stroke="#C0D4FF" stroke-width="3" stroke-miterlimit="10"/>
<path d="M15.3658 100.629L80.1264 125.307L135.824 146.518" stroke="#C0D4FF" stroke-width="3" stroke-miterlimit="10"/>
</svg>
