<svg width="562" height="562" viewBox="0 0 562 562" fill="none" xmlns="http://www.w3.org/2000/svg">
<g filter="url(#filter0_f_852_1321)">
<circle cx="281.16" cy="281.154" r="118.5" transform="rotate(81.2465 281.16 281.154)" fill="#5188FF"/>
</g>
<g opacity="0.52">
<path d="M306.806 392.678C307.788 381.245 307.895 369.947 307.163 358.83C306.146 343.374 303.534 328.286 299.474 313.785C295.356 298.986 289.709 284.77 282.714 271.402C275.651 257.861 267.24 245.168 257.631 233.503C248.021 221.839 237.213 211.203 225.396 201.779C213.694 192.449 200.946 184.286 187.372 177.602L187.331 177.599C173.998 170.978 159.932 165.718 145.154 162.031C134.245 159.259 122.974 157.378 111.419 156.394" stroke="url(#paint0_linear_852_1321)" stroke-width="4.82574" stroke-miterlimit="10"/>
<path d="M101.89 344.622L119.671 259.469L139.939 162.447" stroke="url(#paint1_linear_852_1321)" stroke-width="4.82574" stroke-miterlimit="10"/>
<path d="M182.293 176.251L142.684 266.996L142.662 266.995L108.632 344.976" stroke="url(#paint2_linear_852_1321)" stroke-width="4.82574" stroke-miterlimit="10"/>
<path d="M220.859 198.762L163.61 279.236L115.592 346.755" stroke="url(#paint3_linear_852_1321)" stroke-width="4.82574" stroke-miterlimit="10"/>
<path d="M253.941 228.952L181.565 295.649L121.359 351.145" stroke="url(#paint4_linear_852_1321)" stroke-width="4.82574" stroke-miterlimit="10"/>
<path d="M280.105 265.522L195.794 315.528L125.043 357.477" stroke="url(#paint5_linear_852_1321)" stroke-width="4.82574" stroke-miterlimit="10"/>
<path d="M298.219 306.866L205.636 337.983L126.011 364.727" stroke="url(#paint6_linear_852_1321)" stroke-width="4.82574" stroke-miterlimit="10"/>
<path d="M125.671 371.55L210.647 362.05L307.48 351.208" stroke="url(#paint7_linear_852_1321)" stroke-width="4.82574" stroke-miterlimit="10"/>
<path d="M127.891 362.667L212.214 376.311L308.309 391.843" stroke="url(#paint8_linear_852_1321)" stroke-width="4.82574" stroke-miterlimit="10"/>
</g>
<defs>
<filter id="filter0_f_852_1321" x="0.544525" y="0.536865" width="561.231" height="561.233" filterUnits="userSpaceOnUse" color-interpolation-filters="sRGB">
<feFlood flood-opacity="0" result="BackgroundImageFix"/>
<feBlend mode="normal" in="SourceGraphic" in2="BackgroundImageFix" result="shape"/>
<feGaussianBlur stdDeviation="81.05" result="effect1_foregroundBlur_852_1321"/>
</filter>
<linearGradient id="paint0_linear_852_1321" x1="218.475" y1="165.51" x2="7.79244" y2="29.1391" gradientUnits="userSpaceOnUse">
<stop stop-color="#EFF3FF"/>
<stop offset="1" stop-color="#91B4FF"/>
</linearGradient>
<linearGradient id="paint1_linear_852_1321" x1="125.532" y1="161.772" x2="116.93" y2="345.327" gradientUnits="userSpaceOnUse">
<stop stop-color="#EFF3FF"/>
<stop offset="1" stop-color="#91B4FF"/>
</linearGradient>
<linearGradient id="paint2_linear_852_1321" x1="149.796" y1="174.733" x2="141.768" y2="346.525" gradientUnits="userSpaceOnUse">
<stop stop-color="#EFF3FF"/>
<stop offset="1" stop-color="#91B4FF"/>
</linearGradient>
<linearGradient id="paint3_linear_852_1321" x1="172.077" y1="196.484" x2="164.954" y2="349.06" gradientUnits="userSpaceOnUse">
<stop stop-color="#EFF3FF"/>
<stop offset="1" stop-color="#91B4FF"/>
</linearGradient>
<linearGradient id="paint4_linear_852_1321" x1="190.885" y1="226.009" x2="184.905" y2="354.111" gradientUnits="userSpaceOnUse">
<stop stop-color="#EFF3FF"/>
<stop offset="1" stop-color="#91B4FF"/>
</linearGradient>
<linearGradient id="paint5_linear_852_1321" x1="205.073" y1="262.019" x2="200.452" y2="360.998" gradientUnits="userSpaceOnUse">
<stop stop-color="#EFF3FF"/>
<stop offset="1" stop-color="#91B4FF"/>
</linearGradient>
<linearGradient id="paint6_linear_852_1321" x1="213.774" y1="302.92" x2="210.701" y2="368.683" gradientUnits="userSpaceOnUse">
<stop stop-color="#EFF3FF"/>
<stop offset="1" stop-color="#91B4FF"/>
</linearGradient>
<linearGradient id="paint7_linear_852_1321" x1="217.3" y1="346.983" x2="215.951" y2="375.78" gradientUnits="userSpaceOnUse">
<stop stop-color="#EFF3FF"/>
<stop offset="1" stop-color="#91B4FF"/>
</linearGradient>
<linearGradient id="paint8_linear_852_1321" x1="222.504" y1="363.574" x2="213.51" y2="390.875" gradientUnits="userSpaceOnUse">
<stop stop-color="#EFF3FF"/>
<stop offset="1" stop-color="#91B4FF"/>
</linearGradient>
</defs>
</svg>
