<svg width="562" height="562" viewBox="0 0 562 562" fill="none" xmlns="http://www.w3.org/2000/svg">
<g filter="url(#filter0_f_852_1335)">
<circle cx="281.152" cy="280.785" r="118.5" transform="rotate(81.2465 281.152 280.785)" fill="#5188FF"/>
</g>
<g opacity="0.52">
<path d="M442.543 266.585C442.877 255.115 442.345 243.829 440.986 232.771C439.098 217.398 435.637 202.481 430.765 188.232C425.818 173.69 419.376 159.815 411.637 146.864C403.82 133.744 394.706 121.546 384.452 110.443C374.199 99.3401 362.807 89.3318 350.476 80.5906C338.266 71.937 325.077 64.5069 311.147 58.6013L311.106 58.6002C297.421 52.7433 283.079 48.2859 268.117 45.4399C257.069 43.2891 245.71 42.0478 234.117 41.7184" stroke="url(#paint0_linear_852_1335)" stroke-width="4.82574" stroke-miterlimit="10"/>
<path d="M235.24 230.184L248.181 144.162L262.936 46.1497" stroke="url(#paint1_linear_852_1335)" stroke-width="4.82574" stroke-miterlimit="10"/>
<path d="M306.002 57.5392L271.584 150.377L271.561 150.377L241.992 230.157" stroke="url(#paint2_linear_852_1335)" stroke-width="4.82574" stroke-miterlimit="10"/>
<path d="M345.777 77.835L293.166 161.415L249.04 231.539" stroke="url(#paint3_linear_852_1335)" stroke-width="4.82574" stroke-miterlimit="10"/>
<path d="M380.514 106.107L312.021 176.787L255.047 235.597" stroke="url(#paint4_linear_852_1335)" stroke-width="4.82574" stroke-miterlimit="10"/>
<path d="M408.701 141.141L327.35 195.83L259.082 241.71" stroke="url(#paint5_linear_852_1335)" stroke-width="4.82574" stroke-miterlimit="10"/>
<path d="M429.121 181.395L338.444 217.694L260.458 248.893" stroke="url(#paint6_linear_852_1335)" stroke-width="4.82574" stroke-miterlimit="10"/>
<path d="M260.503 255.726L344.806 241.439L440.873 225.143" stroke="url(#paint7_linear_852_1335)" stroke-width="4.82574" stroke-miterlimit="10"/>
<path d="M262.221 246.731L347.18 255.589L443.998 265.666" stroke="url(#paint8_linear_852_1335)" stroke-width="4.82574" stroke-miterlimit="10"/>
</g>
<defs>
<filter id="filter0_f_852_1335" x="0.53476" y="0.167816" width="561.235" height="561.233" filterUnits="userSpaceOnUse" color-interpolation-filters="sRGB">
<feFlood flood-opacity="0" result="BackgroundImageFix"/>
<feBlend mode="normal" in="SourceGraphic" in2="BackgroundImageFix" result="shape"/>
<feGaussianBlur stdDeviation="81.05" result="effect1_foregroundBlur_852_1335"/>
</filter>
<linearGradient id="paint0_linear_852_1335" x1="341.518" y1="44.7709" x2="123.467" y2="-79.4784" gradientUnits="userSpaceOnUse">
<stop stop-color="#EFF3FF"/>
<stop offset="1" stop-color="#91B4FF"/>
</linearGradient>
<linearGradient id="paint1_linear_852_1335" x1="248.513" y1="46.2896" x2="250.295" y2="230.037" gradientUnits="userSpaceOnUse">
<stop stop-color="#EFF3FF"/>
<stop offset="1" stop-color="#91B4FF"/>
</linearGradient>
<linearGradient id="paint2_linear_852_1335" x1="273.471" y1="57.8592" x2="275.163" y2="229.83" gradientUnits="userSpaceOnUse">
<stop stop-color="#EFF3FF"/>
<stop offset="1" stop-color="#91B4FF"/>
</linearGradient>
<linearGradient id="paint3_linear_852_1335" x1="296.945" y1="78.3173" x2="298.453" y2="231.051" gradientUnits="userSpaceOnUse">
<stop stop-color="#EFF3FF"/>
<stop offset="1" stop-color="#91B4FF"/>
</linearGradient>
<linearGradient id="paint4_linear_852_1335" x1="317.392" y1="106.732" x2="318.659" y2="234.968" gradientUnits="userSpaceOnUse">
<stop stop-color="#EFF3FF"/>
<stop offset="1" stop-color="#91B4FF"/>
</linearGradient>
<linearGradient id="paint5_linear_852_1335" x1="333.591" y1="141.883" x2="334.569" y2="240.964" gradientUnits="userSpaceOnUse">
<stop stop-color="#EFF3FF"/>
<stop offset="1" stop-color="#91B4FF"/>
</linearGradient>
<linearGradient id="paint6_linear_852_1335" x1="344.588" y1="182.227" x2="345.236" y2="248.059" gradientUnits="userSpaceOnUse">
<stop stop-color="#EFF3FF"/>
<stop offset="1" stop-color="#91B4FF"/>
</linearGradient>
<linearGradient id="paint7_linear_852_1335" x1="350.598" y1="226.02" x2="350.878" y2="254.848" gradientUnits="userSpaceOnUse">
<stop stop-color="#EFF3FF"/>
<stop offset="1" stop-color="#91B4FF"/>
</linearGradient>
<linearGradient id="paint8_linear_852_1335" x1="356.734" y1="242.29" x2="349.296" y2="270.056" gradientUnits="userSpaceOnUse">
<stop stop-color="#EFF3FF"/>
<stop offset="1" stop-color="#91B4FF"/>
</linearGradient>
</defs>
</svg>
