<svg xmlns="http://www.w3.org/2000/svg" fill="none" viewBox="0 0 41 40"><path stroke="currentColor" stroke-width="1.5" d="M3.834 20c0-6.285 0-9.428 1.953-11.38 1.954-1.952 5.095-1.953 11.38-1.953h6.667c6.285 0 9.428 0 11.38 1.953s1.953 5.095 1.953 11.38v3.333c0 6.285 0 9.429-1.953 11.38-1.953 1.952-5.095 1.954-11.38 1.954h-6.667c-6.285 0-9.428 0-11.38-1.954-1.951-1.953-1.953-5.095-1.953-11.38V20Z"/><path stroke="currentColor" stroke-linecap="round" stroke-width="1.5" d="M12.168 6.667v-2.5m16.667 2.5v-2.5M4.668 15h31.667"/><path fill="currentColor" d="M30.5 28.333a1.666 1.666 0 1 1-3.333 0 1.666 1.666 0 0 1 3.333 0Zm0-6.666a1.667 1.667 0 1 1-3.333 0 1.667 1.667 0 0 1 3.333 0Zm-8.333 6.666a1.666 1.666 0 1 1-3.333 0 1.666 1.666 0 0 1 3.333 0Zm0-6.666a1.667 1.667 0 1 1-3.334 0 1.667 1.667 0 0 1 3.334 0Zm-8.334 6.666a1.667 1.667 0 1 1-3.333 0 1.667 1.667 0 0 1 3.333 0Zm0-6.666a1.667 1.667 0 1 1-3.334 0 1.667 1.667 0 0 1 3.334 0Z"/></svg>