<svg width="24" height="24" viewBox="0 0 24 24" fill="none" xmlns="http://www.w3.org/2000/svg">
<path d="M18.3638 7.05026L13.4141 12L18.3638 16.9497C18.7528 17.3387 18.7528 17.9751 18.3638 18.364C17.9749 18.7529 17.3385 18.7529 16.9496 18.364L11.9999 13.4142L7.05013 18.364C6.66122 18.7529 6.02483 18.7529 5.63592 18.364C5.24701 17.9751 5.24701 17.3387 5.63592 16.9497L10.5857 12L5.63592 7.05026C5.24701 6.66135 5.24701 6.02495 5.63592 5.63604C6.02483 5.24713 6.66122 5.24713 7.05013 5.63604L11.9999 10.5858L16.9496 5.63604C17.3385 5.24713 17.9749 5.24713 18.3638 5.63604C18.7528 6.02495 18.7528 6.66135 18.3638 7.05026Z" fill="#EDF0F5"/>
</svg>
