<svg xmlns="http://www.w3.org/2000/svg" fill="none" viewBox="0 0 318 370"><path stroke="#C0D4FF" stroke-miterlimit="10" stroke-width="3" d="M222.5 9.614a279.292 279.292 0 0 0-39.851 16.25 276.821 276.821 0 0 0-48.977 31.38 273.934 273.934 0 0 0-41.348 40.909 278.861 278.861 0 0 0-31.957 48.644 280.598 280.598 0 0 0-21.165 54.149c-5.12 18.58-8.353 37.835-9.441 57.348l.016.05c-1.135 19.194-.31 38.595 2.713 58.07 2.172 14.401 5.569 28.796 10.158 43.089"/><path stroke="#C0D4FF" stroke-miterlimit="10" stroke-width="3" d="m267.974 278.168-108.615 20.691-123.758 23.564M30.774 264.993l125.968 2.659.01.027 108.247 2.275M38.028 207.804l122.657 28.816 102.905 24.159M57.003 153.384l113.994 53.693 94.844 44.658M86.884 104.093l100.34 76.188 84.185 63.941M126.351 62.079l82.303 95.381 70.761 82.041M287.602 236.537l-53.226-96.924-60.673-110.44"/></svg>