<svg xmlns="http://www.w3.org/2000/svg" fill="none" viewBox="0 0 40 40"><path stroke="currentColor" stroke-linecap="round" stroke-width="2" d="M35 11.937c0-1.739 0-2.609-.472-3.264-.471-.655-1.296-.93-2.946-1.48l-1.942-.646c-2.278-.76-3.417-1.14-4.565-.985-1.147.153-2.147.818-4.145 2.15l-2.303 1.536c-1.56 1.04-2.34 1.56-3.217 1.767-.32.077-.649.121-.978.133-.9.03-1.789-.266-3.567-.86-2.33-.776-3.495-1.165-4.382-.77a2.5 2.5 0 0 0-.828.597C5 10.833 5 12.06 5 14.517v6.775m30-2.959v7.15c0 2.457 0 3.685-.655 4.4a2.5 2.5 0 0 1-.828.6c-.887.394-2.052.005-4.382-.771-1.778-.594-2.667-.89-3.567-.859-.33.011-.658.055-.98.13-.875.209-1.655.729-3.215 1.767l-2.303 1.537c-2 1.333-2.998 2-4.145 2.151-1.147.155-2.287-.225-4.565-.985l-1.942-.646c-1.65-.55-2.475-.825-2.946-1.48-.447-.62-.47-1.434-.472-2.994m20-22.5v5.834m0 16.666v-10M15 34.167v-5.834m0-16.666v10"/></svg>