<svg xmlns="http://www.w3.org/2000/svg" fill="none" viewBox="0 0 41 40"><path fill="currentColor" d="m14.646 4.17-1.434.431a7 7 0 0 0-4.908 5.708c-.594 4.136.734 8.973 3.936 14.519 3.194 5.532 6.71 9.095 10.58 10.655a7 7 0 0 0 7.43-1.41l1.084-1.028a4 4 0 0 0 .494-5.246l-2.712-3.76a3 3 0 0 0-3.31-1.112l-4.102 1.255-.106.02c-.452.065-1.496-.913-2.796-3.165-1.36-2.355-1.64-3.733-1.266-4.09l2.086-1.945a5 5 0 0 0 1.15-5.7l-1.324-2.943a4 4 0 0 0-4.802-2.19Zm2.982 3.01 1.32 2.941a3 3 0 0 1-.688 3.42l-2.092 1.948c-1.34 1.268-.896 3.433.904 6.549 1.692 2.931 3.236 4.38 4.896 4.128l.248-.053 4.176-1.273a.999.999 0 0 1 1.104.37l2.712 3.76a2 2 0 0 1-.246 2.623l-1.086 1.028a5 5 0 0 1-5.306 1.006c-3.396-1.367-6.606-4.622-9.596-9.8-2.998-5.19-4.212-9.604-3.69-13.234a5 5 0 0 1 3.506-4.078l1.434-.432a2 2 0 0 1 2.4 1.096"/></svg>